<svg width="186" height="90" viewBox="0 0 186 90" fill="none" xmlns="http://www.w3.org/2000/svg">
<path d="M149 11.8109L156.095 18.9055L172 3" stroke="#10B981" stroke-width="4" stroke-linecap="square"/>
<path d="M3.36364 30.2727V26.4545H37.1136V30.2727H22.3636V73H18.1136V30.2727H3.36364ZM77.7045 26.4545H81.9545V57.2727C81.9545 60.4394 81.2121 63.2727 79.7273 65.7727C78.2424 68.2576 76.1742 70.2197 73.5227 71.6591C70.8864 73.0833 67.8182 73.7955 64.3182 73.7955C60.8333 73.7955 57.7652 73.0758 55.1136 71.6364C52.4621 70.197 50.3939 68.2348 48.9091 65.75C47.4242 63.2652 46.6818 60.4394 46.6818 57.2727V26.4545H50.9318V56.9773C50.9318 59.447 51.4848 61.6515 52.5909 63.5909C53.697 65.5152 55.25 67.0303 57.25 68.1364C59.2652 69.2424 61.6212 69.7955 64.3182 69.7955C67.0152 69.7955 69.3712 69.2424 71.3864 68.1364C73.4015 67.0303 74.9545 65.5152 76.0455 63.5909C77.1515 61.6515 77.7045 59.447 77.7045 56.9773V26.4545ZM107.943 73H94.3068V26.4545H108.761C113.201 26.4545 116.996 27.3788 120.148 29.2273C123.314 31.0758 125.739 33.7273 127.42 37.1818C129.102 40.6364 129.943 44.7803 129.943 49.6136C129.943 54.4924 129.08 58.6818 127.352 62.1818C125.64 65.6667 123.14 68.3409 119.852 70.2045C116.58 72.0682 112.61 73 107.943 73ZM98.5568 69.1818H107.693C111.693 69.1818 115.042 68.3939 117.739 66.8182C120.436 65.2424 122.458 62.9924 123.807 60.0682C125.155 57.1439 125.83 53.6591 125.83 49.6136C125.814 45.5985 125.148 42.1439 123.83 39.25C122.527 36.3561 120.587 34.1364 118.011 32.5909C115.451 31.0455 112.284 30.2727 108.511 30.2727H98.5568V69.1818ZM171.267 26.4545H175.517V57.2727C175.517 60.4394 174.775 63.2727 173.29 65.7727C171.805 68.2576 169.737 70.2197 167.085 71.6591C164.449 73.0833 161.381 73.7955 157.881 73.7955C154.396 73.7955 151.328 73.0758 148.676 71.6364C146.025 70.197 143.956 68.2348 142.472 65.75C140.987 63.2652 140.244 60.4394 140.244 57.2727V26.4545H144.494V56.9773C144.494 59.447 145.047 61.6515 146.153 63.5909C147.259 65.5152 148.812 67.0303 150.812 68.1364C152.828 69.2424 155.184 69.7955 157.881 69.7955C160.578 69.7955 162.934 69.2424 164.949 68.1364C166.964 67.0303 168.517 65.5152 169.608 63.5909C170.714 61.6515 171.267 59.447 171.267 56.9773V26.4545Z" fill="black"/>
</svg>
