<svg width="118" height="51" viewBox="0 0 118 51" fill="none" xmlns="http://www.w3.org/2000/svg">
<path d="M2.09999 21.7H15.1C15.7 21.7 16.2 21.9 16.6 22.3C17 22.7 17.2 23.2 17.2 23.8C17.2 24.4 17 24.8 16.6 25.2C16.2 25.6 15.7 25.8 15.1 25.8H2.09999C1.49999 25.8 1.09999 25.6 0.599991 25.2C0.199991 24.8 0 24.3 0 23.8C0 23.2 0.199991 22.7 0.599991 22.3C1.09999 21.9 1.59999 21.7 2.09999 21.7ZM7.89999 14.2C8.49999 14.2 8.99999 14.4 9.39999 14.9C9.79999 15.3 10 15.9 10 16.5V43.1C10 44 10.1 44.6 10.4 45.1C10.7 45.5 11 45.8 11.4 46C11.8 46.2 12.2 46.2 12.6 46.2C13 46.2 13.3 46.1 13.6 46C13.9 45.9 14.2 45.8 14.6 45.8C15 45.8 15.3 46 15.6 46.3C15.9 46.7 16.1 47.1 16.1 47.7C16.1 48.4 15.7 48.9 14.9 49.4C14.1 49.9 13.3 50.1 12.3 50.1C11.8 50.1 11.2 50.1 10.4 50C9.59999 49.9 8.9 49.7 8.2 49.3C7.5 48.9 6.79999 48.2 6.39999 47.3C5.89999 46.4 5.7 45 5.7 43.4V16.6C5.7 16 5.89999 15.4 6.39999 15C6.69999 14.4 7.29999 14.2 7.89999 14.2Z" fill="#4D4C4C"/>
<path d="M44.6001 21.5C45.3001 21.5 45.8001 21.7 46.2001 22.1C46.6001 22.5 46.8 23.1 46.8 23.7V38.7C46.8 42.4 45.8001 45.3 43.7001 47.3C41.6001 49.3 38.7001 50.4 35.0001 50.4C31.3001 50.4 28.4001 49.4 26.4001 47.3C24.3001 45.3 23.3 42.4 23.3 38.7V23.7C23.3 23 23.5001 22.5 23.9001 22.1C24.3001 21.7 24.8001 21.5 25.5001 21.5C26.2001 21.5 26.7001 21.7 27.1001 22.1C27.5001 22.5 27.7001 23.1 27.7001 23.7V38.7C27.7001 41.2 28.3001 43.1 29.6001 44.4C30.9001 45.7 32.7001 46.3 35.0001 46.3C37.4001 46.3 39.2001 45.7 40.5001 44.4C41.8001 43.1 42.4001 41.2 42.4001 38.7V23.7C42.4001 23 42.6001 22.5 43.0001 22.1C43.4001 21.7 43.9001 21.5 44.6001 21.5Z" fill="#4D4C4C"/>
<path d="M78.5 9.20001C79.3 9.20001 80 9.5 80.5 10C81 10.5 81.2999 11.2 81.2999 12V47.2C81.2999 48 81 48.7 80.5 49.2C80 49.7 79.3 50 78.5 50C77.7 50 77 49.7 76.5 49.2C76 48.7 75.7 48 75.7 47.2V43.2L76.8999 43.3C76.8999 44 76.5999 44.8 76.0999 45.6C75.5999 46.4 74.7999 47.2 73.8999 48C72.9999 48.8 71.8999 49.4 70.5999 49.9C69.2999 50.4 67.9999 50.6 66.5999 50.6C64.0999 50.6 61.7999 49.9 59.7999 48.6C57.7999 47.3 56.2 45.5 55 43.2C53.8 40.9 53.2 38.3 53.2 35.4C53.2 32.5 53.8 29.9 55 27.6C56.2 25.3 57.7999 23.6 59.7999 22.2C61.7999 20.9 63.9999 20.2 66.3999 20.2C67.9999 20.2 69.3999 20.5 70.7999 21C72.0999 21.5 73.2999 22.2 74.2999 23C75.2999 23.8 76.0999 24.7 76.5999 25.6C77.1999 26.5 77.3999 27.4 77.3999 28.2L75.7 28.4V12C75.7 11.2 76 10.5 76.5 10C77 9.5 77.7 9.20001 78.5 9.20001ZM67.2999 45.5C69.0999 45.5 70.5999 45.1 71.8999 44.2C73.1999 43.3 74.2 42.1 75 40.6C75.7 39.1 76.0999 37.4 76.0999 35.5C76.0999 33.6 75.7 31.9 75 30.4C74.3 28.9 73.1999 27.7 71.8999 26.8C70.5999 25.9 69.0999 25.5 67.2999 25.5C65.5999 25.5 64.0999 25.9 62.7999 26.8C61.4999 27.7 60.5 28.9 59.7 30.4C58.9 31.9 58.5999 33.6 58.5999 35.5C58.5999 37.4 59 39.1 59.7 40.6C60.5 42.1 61.4999 43.3 62.7999 44.2C64.0999 45.1 65.5999 45.5 67.2999 45.5Z" fill="#4D4C4C"/>
<path d="M110.6 21C111.4 21 112 21.3 112.6 21.8C113.1 22.3 113.4 23 113.4 23.8V38.3C113.4 42.1 112.3 45.1 110.2 47.3C108.1 49.5 105.1 50.5 101.2 50.5C97.3 50.5 94.3 49.4 92.2 47.3C90.1 45.1 89 42.2 89 38.3V23.8C89 23 89.3 22.3 89.8 21.8C90.3 21.3 91 21 91.8 21C92.6 21 93.2 21.3 93.8 21.8C94.3 22.3 94.6 23 94.6 23.8V38.3C94.6 40.7 95.2 42.5 96.3 43.7C97.4 44.9 99.1 45.5 101.2 45.5C103.4 45.5 105.1 44.9 106.2 43.7C107.3 42.5 107.9 40.7 107.9 38.3V23.8C107.9 23 108.2 22.3 108.7 21.8C109.1 21.3 109.8 21 110.6 21Z" fill="#4D4C4C"/>
<path d="M99.5 11L103 14.5L115.6 2" stroke="#34AF7F" stroke-width="4" stroke-miterlimit="10" stroke-linecap="round" stroke-linejoin="round"/>
</svg>
