<svg width="118" height="51" viewBox="0 0 118 51" fill="none" xmlns="http://www.w3.org/2000/svg">
<path d="M2.10001 21.7H15.1C15.7 21.7 16.2 21.9 16.6 22.3C17 22.7 17.2 23.2 17.2 23.8C17.2 24.4 17 24.8 16.6 25.2C16.2 25.6 15.7 25.8 15.1 25.8H2.10001C1.50001 25.8 1.10001 25.6 0.600006 25.2C0.200006 24.8 0 24.3 0 23.8C0 23.2 0.200006 22.7 0.600006 22.3C1.00001 21.9 1.50001 21.7 2.10001 21.7ZM7.80002 14.2C8.40002 14.2 8.90002 14.4 9.30002 14.9C9.70002 15.4 9.89999 15.9 9.89999 16.5V43.1C9.89999 44 10 44.6 10.3 45.1C10.6 45.5 10.9 45.8 11.3 46C11.7 46.2 12.1 46.2 12.5 46.2C12.9 46.2 13.2 46.1 13.5 46C13.8 45.9 14.1 45.8 14.5 45.8C14.9 45.8 15.2 46 15.5 46.3C15.8 46.7 16 47.1 16 47.7C16 48.4 15.6 48.9 14.8 49.4C14 49.9 13.2 50.1 12.2 50.1C11.7 50.1 11.1 50.1 10.3 50C9.50002 49.9 8.80001 49.7 8.10001 49.3C7.40001 48.9 6.70002 48.2 6.30002 47.3C5.80002 46.4 5.60001 45 5.60001 43.4V16.6C5.60001 16 5.80002 15.4 6.30002 15C6.80002 14.6 7.20002 14.2 7.80002 14.2Z" fill="#E5E4E4"/>
<path d="M44.4999 21.5C45.1999 21.5 45.6999 21.7 46.0999 22.1C46.4999 22.5 46.7 23.1 46.7 23.7V38.7C46.7 42.4 45.6999 45.3 43.5999 47.3C41.4999 49.3 38.5999 50.4 34.8999 50.4C31.1999 50.4 28.3 49.4 26.3 47.3C24.2 45.3 23.2 42.4 23.2 38.7V23.7C23.2 23 23.4 22.5 23.8 22.1C24.2 21.7 24.6999 21.5 25.3999 21.5C26.0999 21.5 26.5999 21.7 26.9999 22.1C27.3999 22.5 27.5999 23.1 27.5999 23.7V38.7C27.5999 41.2 28.1999 43.1 29.4999 44.4C30.7999 45.7 32.5999 46.3 34.8999 46.3C37.2999 46.3 39.0999 45.7 40.3999 44.4C41.6999 43.1 42.3 41.2 42.3 38.7V23.7C42.3 23 42.4999 22.5 42.8999 22.1C43.2999 21.7 43.8999 21.5 44.4999 21.5Z" fill="#E5E4E4"/>
<path d="M78.4001 9.20001C79.2001 9.20001 79.9001 9.5 80.4001 10C80.9001 10.5 81.2001 11.2 81.2001 12V47.2C81.2001 48 80.9001 48.7 80.4001 49.2C79.9001 49.7 79.2001 50 78.4001 50C77.6001 50 76.9001 49.7 76.4001 49.2C75.9001 48.7 75.6001 48 75.6001 47.2V43.2L76.8001 43.3C76.8001 44 76.5001 44.8 76.0001 45.6C75.5001 46.4 74.7001 47.2 73.8001 48C72.9001 48.8 71.8001 49.4 70.5001 49.9C69.2001 50.4 67.9001 50.6 66.5001 50.6C64.0001 50.6 61.7001 49.9 59.7001 48.6C57.7001 47.3 56.1001 45.5 54.9001 43.2C53.7001 40.9 53.1001 38.3 53.1001 35.4C53.1001 32.5 53.7001 29.9 54.9001 27.6C56.1001 25.3 57.7001 23.6 59.7001 22.2C61.7001 20.9 63.9001 20.2 66.3001 20.2C67.9001 20.2 69.3001 20.5 70.7001 21C72.0001 21.5 73.2001 22.2 74.2001 23C75.2001 23.8 76.0001 24.7 76.5001 25.6C77.1001 26.5 77.3001 27.4 77.3001 28.2L75.6001 28.4V12C75.6001 11.2 75.9001 10.5 76.4001 10C77.0001 9.5 77.6001 9.20001 78.4001 9.20001ZM67.2001 45.5C69.0001 45.5 70.5001 45.1 71.8001 44.2C73.1001 43.3 74.1001 42.1 74.9001 40.6C75.6001 39.1 76.0001 37.4 76.0001 35.5C76.0001 33.6 75.6001 31.9 74.9001 30.4C74.2001 28.9 73.1001 27.7 71.8001 26.8C70.5001 25.9 69.0001 25.5 67.2001 25.5C65.5001 25.5 64.0001 25.9 62.7001 26.8C61.4001 27.7 60.4001 28.9 59.6001 30.4C58.8001 31.9 58.5001 33.6 58.5001 35.5C58.5001 37.4 58.9001 39.1 59.6001 40.6C60.4001 42.1 61.4001 43.3 62.7001 44.2C64.0001 45.1 65.5001 45.5 67.2001 45.5Z" fill="#E5E4E4"/>
<path d="M110.5 21C111.3 21 111.9 21.3 112.5 21.8C113 22.3 113.3 23 113.3 23.8V38.3C113.3 42.1 112.2 45.1 110.1 47.3C108 49.5 105 50.5 101.1 50.5C97.1999 50.5 94.1999 49.4 92.0999 47.3C89.9999 45.1 88.8999 42.2 88.8999 38.3V23.8C88.8999 23 89.1999 22.3 89.6999 21.8C90.1999 21.3 90.8999 21 91.6999 21C92.4999 21 93.0999 21.3 93.6999 21.8C94.1999 22.3 94.4999 23 94.4999 23.8V38.3C94.4999 40.7 95.0999 42.5 96.1999 43.7C97.2999 44.9 98.9999 45.5 101.1 45.5C103.3 45.5 105 44.9 106.1 43.7C107.2 42.5 107.8 40.7 107.8 38.3V23.8C107.8 23 108.1 22.3 108.6 21.8C109.1 21.3 109.7 21 110.5 21Z" fill="#E5E4E4"/>
<path d="M99.5 11L103 14.5L115.5 2" stroke="#34AF7F" stroke-width="4" stroke-miterlimit="10" stroke-linecap="round" stroke-linejoin="round"/>
</svg>
